<svg xmlns="http://www.w3.org/2000/svg" viewBox="0 0 400 400">
  <title>sentry-icon</title>
  <rect fill="#e03e2f" width="400" height="400"/>
  <path fill="#fff" d="M216,120.23a18.5,18.5,0,0,0-32,0l-26.34,45.58,6.72,3.85a129.1,129.1,0,0,1,64.29,103.93h-18.5a110.61,110.61,0,0,0-55.1-88l-6.72-3.84-24.54,42.63,6.72,3.85a62.22,62.22,0,0,1,30.18,45.36H118.48a3.06,3.06,0,0,1-3.1-3,3.11,3.11,0,0,1,.41-1.58l11.78-20.37A42.89,42.89,0,0,0,114.13,241L102.48,261.3a18.47,18.47,0,0,0,16,27.69h58.13v-7.7A76.71,76.71,0,0,0,144.7,219L154,203A95.19,95.19,0,0,1,195,281.23v7.7h49.26v-7.69a144.48,144.48,0,0,0-65.64-120.91l18.69-32.4a3.06,3.06,0,0,1,4.17-1.11,3.14,3.14,0,0,1,1.12,1.11L284.14,269a3.05,3.05,0,0,1-2.69,4.58H262.38c.24,5.14.27,10.28,0,15.41h19.14a18.46,18.46,0,0,0,16-27.69Z"/>
</svg>
