<?xml version="1.0" encoding="iso-8859-1"?>
<!DOCTYPE svg PUBLIC "-//W3C//DTD SVG 1.1//EN" "http://www.w3.org/Graphics/SVG/1.1/DTD/svg11.dtd">
<svg id="SentryIcon" data-name="SentryIcon" xmlns="http://www.w3.org/2000/svg" xmlns:xlink="http://www.w3.org/1999/xlink" viewBox="0 0 480 480">
  <defs>
    <style>
      .sentry-icon-cls-1 {
        fill: url(#sentry-icon-linear-gradient);
      }

      .sentry-icon-cls-2 {
        fill: #fff;
      }
    </style>
    <linearGradient id="sentry-icon-linear-gradient" x1="70.29" y1="409.71" x2="409.71" y2="70.29" gradientTransform="matrix(1, 0, 0, -1, 0, 480)" gradientUnits="userSpaceOnUse">
      <stop offset="0" stop-color="#6c5fc7"/>
      <stop offset="1" stop-color="#423b87"/>
    </linearGradient>
  </defs>
  <title>sentry-icon</title>
  <circle class="sentry-icon-cls-1" cx="240" cy="240" r="240"/>
  <path class="sentry-icon-cls-2" d="M258,140.37a20.74,20.74,0,0,0-35.92,0l-29.57,51.22,7.54,4.32a145.07,145.07,0,0,1,72.16,116.77H251.43a124.33,124.33,0,0,0-61.85-98.87L182,209.49l-27.54,47.9,7.54,4.33a69.91,69.91,0,0,1,33.88,51H148.5a3.43,3.43,0,0,1-3-5.14l13.22-22.89A48.19,48.19,0,0,0,143.61,276l-13.08,22.84a20.73,20.73,0,0,0,18,31.1h65.24v-8.64a86.2,86.2,0,0,0-35.81-70l10.38-18a107,107,0,0,1,46.1,87.9v8.65H289.7v-8.64A162.35,162.35,0,0,0,216,185.43L237,149a3.42,3.42,0,0,1,4.68-1.25,3.48,3.48,0,0,1,1.25,1.25l91.51,158.51a3.43,3.43,0,0,1-1.24,4.68,3.48,3.48,0,0,1-1.78.46H310A169.59,169.59,0,0,1,310,330h21.49a20.74,20.74,0,0,0,18-31.11Z"/>
</svg>
